<svg width="25" height="24" viewBox="0 0 25 24" fill="none" xmlns="http://www.w3.org/2000/svg">
<path d="M22.5 4.84969V16.7397C22.5 17.7097 21.71 18.5997 20.74 18.7197L20.43 18.7597C18.79 18.9797 16.48 19.6597 14.62 20.4397C13.97 20.7097 13.25 20.2197 13.25 19.5097V5.59969C13.25 5.22969 13.46 4.88969 13.79 4.70969C15.62 3.71969 18.39 2.83969 20.27 2.67969H20.33C21.53 2.67969 22.5 3.64969 22.5 4.84969Z" fill="#8D929B"/>
<path d="M11.21 4.70969C9.37999 3.71969 6.60999 2.83969 4.72999 2.67969H4.65999C3.45999 2.67969 2.48999 3.64969 2.48999 4.84969V16.7397C2.48999 17.7097 3.27999 18.5997 4.24999 18.7197L4.55999 18.7597C6.19999 18.9797 8.50999 19.6597 10.37 20.4397C11.02 20.7097 11.74 20.2197 11.74 19.5097V5.59969C11.74 5.21969 11.54 4.88969 11.21 4.70969ZM5.49999 7.73969H7.74999C8.15999 7.73969 8.49999 8.07969 8.49999 8.48969C8.49999 8.90969 8.15999 9.23969 7.74999 9.23969H5.49999C5.08999 9.23969 4.74999 8.90969 4.74999 8.48969C4.74999 8.07969 5.08999 7.73969 5.49999 7.73969ZM8.49999 12.2397H5.49999C5.08999 12.2397 4.74999 11.9097 4.74999 11.4897C4.74999 11.0797 5.08999 10.7397 5.49999 10.7397H8.49999C8.90999 10.7397 9.24999 11.0797 9.24999 11.4897C9.24999 11.9097 8.90999 12.2397 8.49999 12.2397Z" fill="#8D929B"/>
</svg>
