<svg width="16" height="16" viewBox="0 0 16 16" fill="none" xmlns="http://www.w3.org/2000/svg">
<path d="M6.66405 5.13574C6.73436 5.13574 6.77454 5.08552 6.7896 5.02023C6.95534 4.18652 6.9453 4.16643 7.81416 3.99568C7.88949 3.98061 7.93469 3.94043 7.93469 3.87012C7.93469 3.7998 7.88949 3.75963 7.81918 3.74456C6.94027 3.56376 6.9453 3.54367 6.7896 2.71498C6.77956 2.64969 6.73436 2.60449 6.66405 2.60449C6.59373 2.60449 6.55355 2.64969 6.54351 2.71498C6.37275 3.55371 6.38782 3.58384 5.51393 3.74456C5.44362 3.7546 5.39842 3.7998 5.39842 3.87012C5.39842 3.93541 5.44362 3.98061 5.51393 3.99568C6.38782 4.17146 6.3828 4.19155 6.54351 5.02023C6.55355 5.08552 6.59373 5.13574 6.66405 5.13574ZM10.9682 6.92369C11.0485 6.92369 11.0988 6.86342 11.1138 6.78809C11.2946 5.81376 11.2846 5.76353 12.3091 5.58775C12.3945 5.57268 12.4498 5.52246 12.4498 5.4421C12.4498 5.36175 12.3945 5.31152 12.3142 5.29646C11.2846 5.11063 11.2695 5.06543 11.1138 4.09612C11.0988 4.01576 11.0485 3.96052 10.9682 3.96052C10.8878 3.96052 10.8326 4.01576 10.8225 4.09612C10.6467 5.07547 10.6518 5.13574 9.61717 5.29646C9.54184 5.3065 9.48157 5.36175 9.48157 5.4421C9.48659 5.52246 9.53681 5.57268 9.61717 5.58775C10.6518 5.76855 10.6618 5.81878 10.8225 6.78809C10.8326 6.86342 10.8878 6.92369 10.9682 6.92369ZM3.89675 8.43039C3.9771 8.43039 4.03235 8.37514 4.04239 8.29478C4.20311 7.32045 4.21817 7.27023 5.24273 7.09445C5.32309 7.07938 5.37833 7.02916 5.37833 6.9488C5.37833 6.86844 5.32309 6.81822 5.24775 6.80315C4.21315 6.61733 4.21315 6.57213 4.04239 5.60282C4.02733 5.52246 3.9771 5.46722 3.89675 5.46722C3.81639 5.46722 3.76617 5.52246 3.7511 5.60282C3.59038 6.58217 3.58034 6.63239 2.55076 6.80315C2.47041 6.81822 2.41516 6.86844 2.41516 6.9488C2.41516 7.02916 2.47041 7.07938 2.54574 7.09445C3.58034 7.27525 3.58034 7.3305 3.7511 8.29981C3.76617 8.37514 3.81639 8.43039 3.89675 8.43039ZM12.495 12.7395C12.7411 12.9907 13.1629 12.9856 13.404 12.7395C13.6501 12.4834 13.6451 12.0816 13.404 11.8305L8.6328 7.03418C8.3867 6.78809 7.96483 6.78809 7.72375 7.03418C7.47766 7.29032 7.48268 7.69713 7.72375 7.94322L12.495 12.7395ZM6.31751 12.8651C6.42297 12.8651 6.49831 12.7948 6.51338 12.6793C6.67409 11.3232 6.73938 11.2831 8.12052 11.0671C8.24608 11.047 8.32141 10.9817 8.32141 10.8712C8.32141 10.7658 8.24608 10.6955 8.14563 10.6754C6.7444 10.4042 6.67409 10.4142 6.51338 9.0632C6.49831 8.94768 6.42297 8.87737 6.31751 8.87737C6.21204 8.87737 6.1367 8.94768 6.12163 9.05818C5.95088 10.4343 5.90065 10.4845 4.4944 10.6754C4.39396 10.6854 4.3136 10.7658 4.3136 10.8712C4.3136 10.9767 4.38893 11.047 4.48938 11.0671C5.90567 11.3383 5.94585 11.3383 6.12163 12.6893C6.1367 12.7948 6.21204 12.8651 6.31751 12.8651ZM12.736 12.3327L9.89842 9.49512L10.1847 9.20885L13.0223 12.0515C13.1278 12.1519 13.1579 12.2725 13.0575 12.3779C12.962 12.4683 12.8415 12.4432 12.736 12.3327Z" fill="#1C1C1E"/>
</svg>
