<svg width="32" height="32" viewBox="0 0 32 32" fill="none" xmlns="http://www.w3.org/2000/svg">
<g clip-path="url(#clip0_1263_1621)">
<rect width="32" height="32" rx="8" fill="url(#paint0_linear_1263_1621)"/>
<g clip-path="url(#clip1_1263_1621)">
<path d="M17.1455 24.7144C17.0404 24.7144 16.9491 24.6784 16.8716 24.6064C16.7996 24.54 16.7554 24.4487 16.7388 24.3325C16.6115 23.425 16.4731 22.6613 16.3237 22.0415C16.1799 21.4272 15.9862 20.9209 15.7427 20.5225C15.4992 20.124 15.1782 19.8058 14.7798 19.5679C14.3869 19.3299 13.8833 19.139 13.269 18.9951C12.6603 18.8457 11.9077 18.7129 11.0112 18.5967C10.8895 18.5856 10.7926 18.5413 10.7207 18.4639C10.6488 18.3864 10.6128 18.2923 10.6128 18.1816C10.6128 18.0765 10.6488 17.9852 10.7207 17.9077C10.7926 17.8302 10.8895 17.786 11.0112 17.7749C11.9077 17.6753 12.6631 17.5563 13.2773 17.418C13.8916 17.2796 14.3979 17.0887 14.7964 16.8452C15.1948 16.6017 15.5158 16.278 15.7593 15.874C16.0028 15.4701 16.1965 14.9582 16.3403 14.3384C16.4897 13.7131 16.6226 12.9438 16.7388 12.0308C16.7554 11.9201 16.7996 11.8315 16.8716 11.7651C16.9491 11.6932 17.0404 11.6572 17.1455 11.6572C17.2562 11.6572 17.3475 11.6932 17.4194 11.7651C17.4914 11.8315 17.5384 11.9201 17.5605 12.0308C17.6768 12.9438 17.8068 13.7131 17.9507 14.3384C18.1001 14.9582 18.2938 15.4701 18.5317 15.874C18.7752 16.278 19.0962 16.6017 19.4946 16.8452C19.8931 17.0887 20.3994 17.2796 21.0137 17.418C21.6279 17.5563 22.3861 17.6753 23.2881 17.7749C23.4043 17.786 23.4984 17.8302 23.5703 17.9077C23.6423 17.9852 23.6782 18.0765 23.6782 18.1816C23.6782 18.2923 23.6423 18.3864 23.5703 18.4639C23.4984 18.5413 23.4043 18.5856 23.2881 18.5967C22.3861 18.6963 21.6279 18.8153 21.0137 18.9536C20.3994 19.092 19.8931 19.2829 19.4946 19.5264C19.0962 19.7643 18.7752 20.0853 18.5317 20.4893C18.2938 20.8932 18.1001 21.4079 17.9507 22.0332C17.8068 22.6585 17.6768 23.425 17.5605 24.3325C17.5384 24.4487 17.4914 24.54 17.4194 24.6064C17.3475 24.6784 17.2562 24.7144 17.1455 24.7144ZM11.5176 15.5337C11.3516 15.5337 11.2575 15.4424 11.2354 15.2598C11.1689 14.7064 11.097 14.272 11.0195 13.9565C10.9476 13.6411 10.8286 13.4059 10.6626 13.251C10.5021 13.0905 10.2586 12.9688 9.93213 12.8857C9.61117 12.8027 9.16846 12.7142 8.604 12.6201C8.41585 12.5924 8.32178 12.4984 8.32178 12.3379C8.32178 12.1829 8.40479 12.0916 8.5708 12.064C9.14079 11.9533 9.58903 11.8564 9.91553 11.7734C10.242 11.6849 10.4883 11.5632 10.6543 11.4082C10.8203 11.2533 10.9421 11.0236 11.0195 10.7192C11.097 10.4093 11.1689 9.9777 11.2354 9.42432C11.2575 9.2417 11.3516 9.15039 11.5176 9.15039C11.6836 9.15039 11.7777 9.23893 11.7998 9.41602C11.8717 9.97493 11.9437 10.4149 12.0156 10.7358C12.0931 11.0568 12.2121 11.3003 12.3726 11.4663C12.5386 11.6268 12.7848 11.7458 13.1113 11.8232C13.4378 11.9007 13.8888 11.981 14.4644 12.064C14.5363 12.0695 14.5944 12.0972 14.6387 12.147C14.6885 12.1968 14.7134 12.2604 14.7134 12.3379C14.7134 12.4928 14.6304 12.5869 14.4644 12.6201C13.8888 12.7308 13.4378 12.8304 13.1113 12.9189C12.7904 13.002 12.5469 13.1237 12.3809 13.2842C12.2204 13.4391 12.1014 13.6715 12.0239 13.9814C11.9465 14.2913 11.8717 14.723 11.7998 15.2764C11.7887 15.3483 11.7583 15.4092 11.7085 15.459C11.6587 15.5088 11.5951 15.5337 11.5176 15.5337ZM15.5352 9.82275C15.43 9.82275 15.3691 9.76742 15.3525 9.65674C15.2861 9.31917 15.228 9.05355 15.1782 8.85986C15.134 8.66618 15.062 8.51953 14.9624 8.41992C14.8683 8.31478 14.7217 8.23177 14.5225 8.1709C14.3232 8.11003 14.0438 8.04915 13.6841 7.98828C13.5734 7.96615 13.5181 7.90251 13.5181 7.79736C13.5181 7.69775 13.5734 7.63688 13.6841 7.61475C14.0438 7.54834 14.3232 7.48747 14.5225 7.43213C14.7217 7.37126 14.8683 7.29102 14.9624 7.19141C15.062 7.08626 15.134 6.93685 15.1782 6.74316C15.228 6.54948 15.2861 6.28385 15.3525 5.94629C15.3691 5.83561 15.43 5.78027 15.5352 5.78027C15.6348 5.78027 15.6956 5.83561 15.7178 5.94629C15.7786 6.28385 15.834 6.54948 15.8838 6.74316C15.9336 6.93685 16.0055 7.08626 16.0996 7.19141C16.1992 7.29102 16.3486 7.37126 16.5479 7.43213C16.7471 7.48747 17.0265 7.54834 17.3862 7.61475C17.4969 7.63688 17.5522 7.69775 17.5522 7.79736C17.5522 7.90251 17.4969 7.96615 17.3862 7.98828C17.0265 8.04915 16.7471 8.11003 16.5479 8.1709C16.3486 8.23177 16.1992 8.31478 16.0996 8.41992C16.0055 8.51953 15.9336 8.66618 15.8838 8.85986C15.834 9.05355 15.7786 9.31917 15.7178 9.65674C15.6956 9.76742 15.6348 9.82275 15.5352 9.82275Z" fill="white"/>
</g>
</g>
<defs>
<linearGradient id="paint0_linear_1263_1621" x1="0" y1="16" x2="32" y2="16" gradientUnits="userSpaceOnUse">
<stop stop-color="#9747FF"/>
<stop offset="1" stop-color="#0DB1A1"/>
</linearGradient>
<clipPath id="clip0_1263_1621">
<rect width="32" height="32" rx="8" fill="white"/>
</clipPath>
<clipPath id="clip1_1263_1621">
<rect width="32" height="32" fill="white"/>
</clipPath>
</defs>
</svg>
