<svg width="32" height="32" viewBox="0 0 32 32" fill="none" xmlns="http://www.w3.org/2000/svg">
<rect width="32" height="32" rx="16" fill="black" fill-opacity="0.5"/>
<path d="M23.5583 10.3582C22.2167 10.2248 20.875 10.1248 19.525 10.0498V10.0415L19.3417 8.95817C19.2167 8.1915 19.0333 7.0415 17.0833 7.0415H14.9C12.9583 7.0415 12.775 8.1415 12.6417 8.94984L12.4667 10.0165C11.6917 10.0665 10.9167 10.1165 10.1417 10.1915L8.44166 10.3582C8.09166 10.3915 7.84166 10.6998 7.87499 11.0415C7.90832 11.3832 8.20832 11.6332 8.55832 11.5998L10.2583 11.4332C14.625 10.9998 19.025 11.1665 23.4417 11.6082C23.4667 11.6082 23.4833 11.6082 23.5083 11.6082C23.825 11.6082 24.1 11.3665 24.1333 11.0415C24.1583 10.6998 23.9083 10.3915 23.5583 10.3582Z" fill="white" fill-opacity="0.7"/>
<path d="M22.025 12.7835C21.825 12.5752 21.55 12.4585 21.2667 12.4585H10.7333C10.45 12.4585 10.1667 12.5752 9.97502 12.7835C9.78335 12.9918 9.67501 13.2752 9.69168 13.5668L10.2083 22.1168C10.3 23.3835 10.4167 24.9668 13.325 24.9668H18.675C21.5833 24.9668 21.7 23.3918 21.7917 22.1168L22.3083 13.5752C22.325 13.2752 22.2167 12.9918 22.025 12.7835ZM17.3833 20.7918H14.6083C14.2667 20.7918 13.9833 20.5085 13.9833 20.1668C13.9833 19.8252 14.2667 19.5418 14.6083 19.5418H17.3833C17.725 19.5418 18.0083 19.8252 18.0083 20.1668C18.0083 20.5085 17.725 20.7918 17.3833 20.7918ZM18.0833 17.4585H13.9167C13.575 17.4585 13.2917 17.1752 13.2917 16.8335C13.2917 16.4918 13.575 16.2085 13.9167 16.2085H18.0833C18.425 16.2085 18.7083 16.4918 18.7083 16.8335C18.7083 17.1752 18.425 17.4585 18.0833 17.4585Z" fill="white" fill-opacity="0.7"/>
</svg>
