<svg width="24" height="24" viewBox="0 0 24 24" fill="none" xmlns="http://www.w3.org/2000/svg">
<path d="M8.39001 18.4897V8.32973C8.39001 7.92973 8.51001 7.53973 8.73001 7.20973L11.46 3.14973C11.89 2.49973 12.96 2.03973 13.87 2.37973C14.85 2.70973 15.5 3.80973 15.29 4.78973L14.77 8.05973C14.73 8.35973 14.81 8.62973 14.98 8.83973C15.15 9.02973 15.4 9.14973 15.67 9.14973H19.78C20.57 9.14973 21.25 9.46973 21.65 10.0297C22.03 10.5697 22.1 11.2697 21.85 11.9797L19.39 19.4697C19.08 20.7097 17.73 21.7197 16.39 21.7197H12.49C11.82 21.7197 10.88 21.4897 10.45 21.0597L9.17001 20.0697C8.68001 19.6997 8.39001 19.1097 8.39001 18.4897Z" fill="white"/>
<path d="M5.21 6.37988H4.18C2.63 6.37988 2 6.97988 2 8.45988V18.5199C2 19.9999 2.63 20.5999 4.18 20.5999H5.21C6.76 20.5999 7.39 19.9999 7.39 18.5199V8.45988C7.39 6.97988 6.76 6.37988 5.21 6.37988Z" fill="white"/>
</svg>
