<svg width="25" height="24" viewBox="0 0 25 24" fill="none" xmlns="http://www.w3.org/2000/svg">
<path d="M3.80633 10.1593C3.21118 10.1593 3.06051 10.6113 3.38445 11.0558L5.23015 13.6021C5.47876 13.9562 5.87803 13.9487 6.11911 13.6021L7.96481 11.0483C8.27368 10.6189 8.13055 10.1593 7.54293 10.1593H6.45811C7.13613 7.4548 9.56944 5.47349 12.5 5.47349C14.5114 5.48103 16.2742 6.41518 17.4043 7.89927C17.7131 8.25335 18.1651 8.36635 18.5343 8.09515C18.8808 7.84654 18.9486 7.35686 18.6096 6.95006C17.2235 5.13449 14.9333 3.91406 12.5 3.91406C8.75582 3.91406 5.58423 6.61858 4.86101 10.1593H3.80633ZM12.2212 7.3418C11.8521 7.3418 11.5583 7.6356 11.5583 7.99721V12.0804C11.5583 12.2612 11.6185 12.4269 11.7466 12.6002L13.5471 14.9657C13.8108 15.3198 14.2025 15.38 14.5265 15.1465C14.8353 14.928 14.8655 14.5287 14.6244 14.2048L12.8766 11.8544V7.99721C12.8766 7.6356 12.5828 7.3418 12.2212 7.3418ZM12.5 19.4933C16.2441 19.4933 19.4157 16.7888 20.1389 13.248H21.1936C21.7887 13.248 21.9394 12.796 21.6155 12.3516L19.7773 9.80525C19.5212 9.45871 19.1219 9.45871 18.8808 9.80525L17.0351 12.3591C16.7262 12.796 16.8694 13.248 17.457 13.248H18.5494C17.8638 15.9526 15.4305 17.9414 12.5 17.9414C10.4885 17.9339 8.72569 16.9922 7.59567 15.5081C7.2868 15.154 6.84232 15.041 6.46565 15.3122C6.11911 15.5608 6.0513 16.0505 6.39031 16.4648C7.77647 18.2729 10.0666 19.4933 12.5 19.4933Z" fill="#8D929B"/>
</svg>
