<svg width="32" height="32" viewBox="0 0 32 32" fill="none" xmlns="http://www.w3.org/2000/svg">
<path d="M27.96 1.3335H24.04C22.88 1.3335 22.0266 1.8135 21.64 2.66683C21.4266 3.0535 21.3333 3.50683 21.3333 4.04016V7.96016C21.3333 9.6535 22.3466 10.6668 24.04 10.6668H27.96C28.4933 10.6668 28.9466 10.5735 29.3333 10.3602C30.1866 9.9735 30.6666 9.12016 30.6666 7.96016V4.04016C30.6666 2.34683 29.6533 1.3335 27.96 1.3335ZM29.2133 6.5735C29.08 6.70683 28.88 6.80016 28.6666 6.8135H26.7866V7.4935L26.8 8.66683C26.7866 8.8935 26.7066 9.08016 26.5466 9.24016C26.4133 9.3735 26.2133 9.46683 26 9.46683C25.56 9.46683 25.2 9.10683 25.2 8.66683V6.80016L23.3333 6.8135C22.8933 6.8135 22.5333 6.44016 22.5333 6.00016C22.5333 5.56016 22.8933 5.20016 23.3333 5.20016L24.5066 5.2135H25.2V3.34683C25.2 2.90683 25.56 2.5335 26 2.5335C26.44 2.5335 26.8 2.90683 26.8 3.34683L26.7866 4.2935V5.20016H28.6666C29.1066 5.20016 29.4666 5.56016 29.4666 6.00016C29.4533 6.22683 29.36 6.4135 29.2133 6.5735Z" fill="white"/>
<path d="M12 13.8398C13.7526 13.8398 15.1733 12.4191 15.1733 10.6665C15.1733 8.91391 13.7526 7.49316 12 7.49316C10.2474 7.49316 8.82666 8.91391 8.82666 10.6665C8.82666 12.4191 10.2474 13.8398 12 13.8398Z" fill="white"/>
<path d="M27.96 10.6665H27.3334V16.8132L27.16 16.6665C26.12 15.7732 24.44 15.7732 23.4 16.6665L17.8534 21.4265C16.8134 22.3198 15.1334 22.3198 14.0934 21.4265L13.64 21.0532C12.6934 20.2265 11.1867 20.1465 10.12 20.8665L5.13335 24.2132C4.84002 23.4665 4.66669 22.5998 4.66669 21.5865V10.4132C4.66669 6.65317 6.65335 4.6665 10.4134 4.6665H21.3334V4.03984C21.3334 3.5065 21.4267 3.05317 21.64 2.6665H10.4134C5.56002 2.6665 2.66669 5.55984 2.66669 10.4132V21.5865C2.66669 23.0398 2.92002 24.3065 3.41335 25.3732C4.56002 27.9065 7.01335 29.3332 10.4134 29.3332H21.5867C26.44 29.3332 29.3334 26.4398 29.3334 21.5865V10.3598C28.9467 10.5732 28.4934 10.6665 27.96 10.6665Z" fill="white"/>
</svg>
