<svg width="32" height="32" viewBox="0 0 32 32" fill="none" xmlns="http://www.w3.org/2000/svg">
<g clip-path="url(#clip0_1348_2905)">
<path d="M16 8.69385C16.2158 8.69385 16.3929 8.76302 16.5312 8.90137C16.6696 9.03971 16.7388 9.2168 16.7388 9.43262V17.8164L16.6807 19.5928L19.1792 16.8618L21.0386 15.0273C21.105 14.9609 21.1852 14.9111 21.2793 14.8779C21.3734 14.8392 21.4702 14.8198 21.5698 14.8198C21.7801 14.8198 21.9517 14.8918 22.0845 15.0356C22.2228 15.174 22.292 15.3455 22.292 15.5503C22.292 15.6499 22.2699 15.7467 22.2256 15.8408C22.1868 15.9294 22.126 16.0179 22.043 16.1064L16.5562 21.6016C16.4787 21.6846 16.3901 21.7482 16.2905 21.7925C16.1965 21.8368 16.0996 21.8589 16 21.8589C15.8949 21.8589 15.7952 21.8368 15.7012 21.7925C15.6071 21.7482 15.5213 21.6846 15.4438 21.6016L9.94873 16.1064C9.87126 16.0179 9.81038 15.9294 9.76611 15.8408C9.72738 15.7467 9.70801 15.6499 9.70801 15.5503C9.70801 15.3455 9.77441 15.174 9.90723 15.0356C10.0456 14.8918 10.2199 14.8198 10.4302 14.8198C10.5298 14.8198 10.6266 14.8392 10.7207 14.8779C10.8148 14.9111 10.895 14.9609 10.9614 15.0273L12.8208 16.8618L15.3193 19.6011L15.2529 17.8164V9.43262C15.2529 9.2168 15.3221 9.03971 15.4604 8.90137C15.6043 8.76302 15.7842 8.69385 16 8.69385ZM10.3887 21.8423H21.5864C21.8022 21.8423 21.9766 21.9115 22.1094 22.0498C22.2477 22.1882 22.3169 22.3652 22.3169 22.5811C22.3169 22.7969 22.2477 22.974 22.1094 23.1123C21.9766 23.2562 21.8022 23.3281 21.5864 23.3281H10.3887C10.1784 23.3281 10.0068 23.2562 9.87402 23.1123C9.74121 22.974 9.6748 22.7969 9.6748 22.5811C9.6748 22.3652 9.74121 22.1882 9.87402 22.0498C10.0068 21.9115 10.1784 21.8423 10.3887 21.8423Z" fill="white" fill-opacity="0.8"/>
</g>
<defs>
<clipPath id="clip0_1348_2905">
<rect width="32" height="32" fill="white"/>
</clipPath>
</defs>
</svg>
