<svg width="24" height="24" viewBox="0 0 24 24" fill="none" xmlns="http://www.w3.org/2000/svg">
<path d="M17.4241 17.7002C19.7745 17.7002 21.6278 15.975 21.6278 13.8205C21.6278 12.2234 20.7162 10.7995 19.2171 10.1742C19.2246 6.76158 16.7687 4.30566 13.6121 4.30566C11.6082 4.30566 10.1015 5.34528 9.15986 6.70884C7.24636 6.19657 5.23492 7.6204 5.15958 9.74484C3.43441 10.0537 2.37219 11.6056 2.37219 13.489C2.37219 15.7867 4.3761 17.7002 7.01282 17.7002H17.4241ZM15.3072 11.8994C15.3072 13.6396 13.9135 15.0409 12.1883 15.0409C10.4707 15.0409 9.08453 13.6396 9.08453 11.9145C9.08453 11.6282 9.3256 11.3947 9.61187 11.3947C9.91321 11.3947 10.1543 11.6282 10.1543 11.9145C10.1543 13.052 11.0583 13.9711 12.1883 13.9711C13.3334 13.9711 14.2374 13.052 14.2374 11.9145C14.2374 10.8372 13.4012 9.95578 12.3465 9.92564C12.2712 9.91811 12.1883 9.91811 12.1205 9.91811L12.6705 10.4756C12.7458 10.5585 12.791 10.6715 12.791 10.792C12.791 11.0783 12.5725 11.2817 12.2938 11.2817C12.1733 11.2817 12.0377 11.2214 11.9548 11.1385L10.644 9.82017C10.4481 9.63184 10.4556 9.2853 10.6364 9.10449L11.9397 7.77107C12.0301 7.68066 12.1657 7.61286 12.3013 7.61286C12.5876 7.61286 12.791 7.83887 12.791 8.09501C12.791 8.23061 12.7383 8.35868 12.6629 8.43401L12.2561 8.85589C12.3089 8.85589 12.3767 8.84835 12.4369 8.85589C13.9587 8.90862 15.3072 10.227 15.3072 11.8994Z" fill="white"/>
</svg>
