<svg width="113" height="32" viewBox="0 0 113 32" fill="none" xmlns="http://www.w3.org/2000/svg">
<rect width="113" height="32" rx="16" fill="url(#paint0_linear_627_224)"/>
<path d="M17.9659 21.2637C17.1993 21.2637 16.5108 21.1367 15.9004 20.8828C15.2901 20.624 14.7676 20.2529 14.3331 19.7695C13.9034 19.2861 13.5738 18.7051 13.3443 18.0264C13.1148 17.3428 13.0001 16.5737 13.0001 15.7192V15.7046C13.0001 14.5767 13.2027 13.6001 13.608 12.7749C14.0132 11.9448 14.5845 11.3027 15.3218 10.8486C16.064 10.3945 16.9356 10.1675 17.9366 10.1675C18.752 10.1675 19.4795 10.314 20.1192 10.6069C20.7637 10.895 21.2911 11.3003 21.7012 11.8228C22.1114 12.3403 22.3726 12.9434 22.4849 13.6318L22.4996 13.7051H20.6246L20.6026 13.6318C20.4317 13.0508 20.1143 12.6016 19.6504 12.2842C19.1866 11.9619 18.6153 11.8008 17.9366 11.8008C17.3213 11.8008 16.7867 11.9595 16.3326 12.2769C15.8834 12.5942 15.5367 13.0435 15.2925 13.6245C15.0484 14.2056 14.9263 14.894 14.9263 15.6899V15.7046C14.9263 16.3101 14.9971 16.8545 15.1387 17.3379C15.2803 17.8213 15.483 18.2339 15.7466 18.5757C16.0152 18.9175 16.3375 19.1787 16.7134 19.3594C17.0943 19.54 17.5215 19.6304 17.9952 19.6304C18.5323 19.6304 19.0035 19.5254 19.4087 19.3154C19.8189 19.1055 20.1387 18.8125 20.3682 18.4365C20.6026 18.0605 20.7247 17.6235 20.7344 17.1255V16.9058H18.2003V15.4629H22.5801V16.7812C22.5801 17.4648 22.4727 18.0825 22.2579 18.6343C22.043 19.186 21.733 19.6572 21.3277 20.0479C20.9273 20.4385 20.4415 20.7388 19.8702 20.9487C19.3038 21.1587 18.669 21.2637 17.9659 21.2637ZM24.5547 21V10.4312H31.3955V12.0205H26.4444V14.8843H31.1245V16.3857H26.4444V19.4106H31.3955V21H24.5547ZM36.1387 21V12.0205H32.8867V10.4312H41.2803V12.0205H38.0283V21H36.1387ZM47.749 17.5063V15.9829H50.5615C51.2402 15.9829 51.7676 15.8096 52.1435 15.4629C52.5195 15.1113 52.7075 14.6182 52.7075 13.9834V13.9688C52.7075 13.3291 52.5195 12.8359 52.1435 12.4893C51.7676 12.1426 51.2402 11.9692 50.5615 11.9692H47.749V10.4312H51.0229C51.7407 10.4312 52.3681 10.5776 52.9053 10.8706C53.4424 11.1636 53.8623 11.5762 54.165 12.1084C54.4678 12.6357 54.6191 13.2534 54.6191 13.9614V13.9761C54.6191 14.6792 54.4678 15.2969 54.165 15.8291C53.8623 16.3564 53.4424 16.769 52.9053 17.0669C52.3681 17.3599 51.7407 17.5063 51.0229 17.5063H47.749ZM46.8042 21V10.4312H48.6938V21H46.8042ZM56.4765 21V10.4312H60.7465C61.5034 10.4312 62.1528 10.5654 62.6948 10.834C63.2368 11.1025 63.6518 11.481 63.9399 11.9692C64.228 12.4575 64.372 13.0386 64.372 13.7124V13.7271C64.372 14.4253 64.1962 15.0454 63.8447 15.5874C63.498 16.1245 63.0122 16.5054 62.3872 16.73L64.6943 21H62.541L60.4609 17.0229C60.4511 17.0229 60.4365 17.0229 60.417 17.0229C60.3974 17.0229 60.3803 17.0229 60.3657 17.0229H58.3662V21H56.4765ZM58.3662 15.5728H60.5488C61.1494 15.5728 61.6157 15.4141 61.9477 15.0967C62.2797 14.7793 62.4458 14.3374 62.4458 13.771V13.7563C62.4458 13.2046 62.2724 12.7676 61.9257 12.4453C61.5839 12.1182 61.1128 11.9546 60.5122 11.9546H58.3662V15.5728ZM70.9975 21.2637C69.9623 21.2637 69.0712 21.0391 68.3242 20.5898C67.582 20.1357 67.0082 19.4937 66.603 18.6636C66.1977 17.8335 65.9951 16.8521 65.9951 15.7192V15.7046C65.9951 14.5669 66.1977 13.5854 66.603 12.7603C67.0131 11.9302 67.5917 11.2905 68.3388 10.8413C69.0908 10.3921 69.977 10.1675 70.9975 10.1675C72.0229 10.1675 72.9091 10.3921 73.6562 10.8413C74.4033 11.2905 74.9794 11.9302 75.3847 12.7603C75.79 13.5903 75.9926 14.5718 75.9926 15.7046V15.7192C75.9926 16.8521 75.79 17.8335 75.3847 18.6636C74.9843 19.4937 74.4106 20.1357 73.6635 20.5898C72.9164 21.0391 72.0278 21.2637 70.9975 21.2637ZM70.9975 19.6304C71.6274 19.6304 72.1718 19.4692 72.6308 19.147C73.0898 18.8247 73.4438 18.3706 73.6928 17.7847C73.9467 17.1987 74.0737 16.5103 74.0737 15.7192V15.7046C74.0737 14.9087 73.9467 14.2202 73.6928 13.6392C73.4438 13.0532 73.0898 12.6016 72.6308 12.2842C72.1718 11.9619 71.6274 11.8008 70.9975 11.8008C70.3725 11.8008 69.8281 11.9619 69.3642 12.2842C68.9052 12.6016 68.5488 13.0532 68.2949 13.6392C68.0458 14.2202 67.9213 14.9087 67.9213 15.7046V15.7192C67.9213 16.5103 68.0434 17.1987 68.2875 17.7847C68.5366 18.3706 68.8906 18.8247 69.3495 19.147C69.8134 19.4692 70.3627 19.6304 70.9975 19.6304Z" fill="white"/>
<g clip-path="url(#clip0_627_224)">
<path d="M94.1455 24.7144C94.0404 24.7144 93.9491 24.6784 93.8716 24.6064C93.7996 24.54 93.7554 24.4487 93.7388 24.3325C93.6115 23.425 93.4731 22.6613 93.3237 22.0415C93.1799 21.4272 92.9862 20.9209 92.7427 20.5225C92.4992 20.124 92.1782 19.8058 91.7798 19.5679C91.3869 19.3299 90.8833 19.139 90.269 18.9951C89.6603 18.8457 88.9077 18.7129 88.0112 18.5967C87.8895 18.5856 87.7926 18.5413 87.7207 18.4639C87.6488 18.3864 87.6128 18.2923 87.6128 18.1816C87.6128 18.0765 87.6488 17.9852 87.7207 17.9077C87.7926 17.8302 87.8895 17.786 88.0112 17.7749C88.9077 17.6753 89.6631 17.5563 90.2773 17.418C90.8916 17.2796 91.3979 17.0887 91.7964 16.8452C92.1948 16.6017 92.5158 16.278 92.7593 15.874C93.0028 15.4701 93.1965 14.9582 93.3403 14.3384C93.4897 13.7131 93.6226 12.9438 93.7388 12.0308C93.7554 11.9201 93.7996 11.8315 93.8716 11.7651C93.9491 11.6932 94.0404 11.6572 94.1455 11.6572C94.2562 11.6572 94.3475 11.6932 94.4194 11.7651C94.4914 11.8315 94.5384 11.9201 94.5605 12.0308C94.6768 12.9438 94.8068 13.7131 94.9507 14.3384C95.1001 14.9582 95.2938 15.4701 95.5317 15.874C95.7752 16.278 96.0962 16.6017 96.4946 16.8452C96.8931 17.0887 97.3994 17.2796 98.0137 17.418C98.6279 17.5563 99.3861 17.6753 100.288 17.7749C100.404 17.786 100.498 17.8302 100.57 17.9077C100.642 17.9852 100.678 18.0765 100.678 18.1816C100.678 18.2923 100.642 18.3864 100.57 18.4639C100.498 18.5413 100.404 18.5856 100.288 18.5967C99.3861 18.6963 98.6279 18.8153 98.0137 18.9536C97.3994 19.092 96.8931 19.2829 96.4946 19.5264C96.0962 19.7643 95.7752 20.0853 95.5317 20.4893C95.2938 20.8932 95.1001 21.4079 94.9507 22.0332C94.8068 22.6585 94.6768 23.425 94.5605 24.3325C94.5384 24.4487 94.4914 24.54 94.4194 24.6064C94.3475 24.6784 94.2562 24.7144 94.1455 24.7144ZM88.5176 15.5337C88.3516 15.5337 88.2575 15.4424 88.2354 15.2598C88.1689 14.7064 88.097 14.272 88.0195 13.9565C87.9476 13.6411 87.8286 13.4059 87.6626 13.251C87.5021 13.0905 87.2586 12.9688 86.9321 12.8857C86.6112 12.8027 86.1685 12.7142 85.604 12.6201C85.4159 12.5924 85.3218 12.4984 85.3218 12.3379C85.3218 12.1829 85.4048 12.0916 85.5708 12.064C86.1408 11.9533 86.589 11.8564 86.9155 11.7734C87.242 11.6849 87.4883 11.5632 87.6543 11.4082C87.8203 11.2533 87.9421 11.0236 88.0195 10.7192C88.097 10.4093 88.1689 9.9777 88.2354 9.42432C88.2575 9.2417 88.3516 9.15039 88.5176 9.15039C88.6836 9.15039 88.7777 9.23893 88.7998 9.41602C88.8717 9.97493 88.9437 10.4149 89.0156 10.7358C89.0931 11.0568 89.2121 11.3003 89.3726 11.4663C89.5386 11.6268 89.7848 11.7458 90.1113 11.8232C90.4378 11.9007 90.8888 11.981 91.4644 12.064C91.5363 12.0695 91.5944 12.0972 91.6387 12.147C91.6885 12.1968 91.7134 12.2604 91.7134 12.3379C91.7134 12.4928 91.6304 12.5869 91.4644 12.6201C90.8888 12.7308 90.4378 12.8304 90.1113 12.9189C89.7904 13.002 89.5469 13.1237 89.3809 13.2842C89.2204 13.4391 89.1014 13.6715 89.0239 13.9814C88.9465 14.2913 88.8717 14.723 88.7998 15.2764C88.7887 15.3483 88.7583 15.4092 88.7085 15.459C88.6587 15.5088 88.5951 15.5337 88.5176 15.5337ZM92.5352 9.82275C92.43 9.82275 92.3691 9.76742 92.3525 9.65674C92.2861 9.31917 92.228 9.05355 92.1782 8.85986C92.134 8.66618 92.062 8.51953 91.9624 8.41992C91.8683 8.31478 91.7217 8.23177 91.5225 8.1709C91.3232 8.11003 91.0438 8.04915 90.6841 7.98828C90.5734 7.96615 90.5181 7.90251 90.5181 7.79736C90.5181 7.69775 90.5734 7.63688 90.6841 7.61475C91.0438 7.54834 91.3232 7.48747 91.5225 7.43213C91.7217 7.37126 91.8683 7.29102 91.9624 7.19141C92.062 7.08626 92.134 6.93685 92.1782 6.74316C92.228 6.54948 92.2861 6.28385 92.3525 5.94629C92.3691 5.83561 92.43 5.78027 92.5352 5.78027C92.6348 5.78027 92.6956 5.83561 92.7178 5.94629C92.7786 6.28385 92.834 6.54948 92.8838 6.74316C92.9336 6.93685 93.0055 7.08626 93.0996 7.19141C93.1992 7.29102 93.3486 7.37126 93.5479 7.43213C93.7471 7.48747 94.0265 7.54834 94.3862 7.61475C94.4969 7.63688 94.5522 7.69775 94.5522 7.79736C94.5522 7.90251 94.4969 7.96615 94.3862 7.98828C94.0265 8.04915 93.7471 8.11003 93.5479 8.1709C93.3486 8.23177 93.1992 8.31478 93.0996 8.41992C93.0055 8.51953 92.9336 8.66618 92.8838 8.85986C92.834 9.05355 92.7786 9.31917 92.7178 9.65674C92.6956 9.76742 92.6348 9.82275 92.5352 9.82275Z" fill="white"/>
</g>
<defs>
<linearGradient id="paint0_linear_627_224" x1="0" y1="16" x2="113" y2="16" gradientUnits="userSpaceOnUse">
<stop stop-color="#9747FF"/>
<stop offset="1" stop-color="#0DB1A1"/>
</linearGradient>
<clipPath id="clip0_627_224">
<rect width="32" height="32" fill="white" transform="translate(77)"/>
</clipPath>
</defs>
</svg>
